<svg width="300" height="300" viewBox="0 0 300 300" fill="none" xmlns="http://www.w3.org/2000/svg">
<g clip-path="url(#clip0_24_411)">
<rect width="300" height="300" fill="white"/>
<path d="M113.717 141C113.717 141.537 113.651 142.059 113.529 142.558C113.181 143.971 113.225 145.594 114.254 146.623C115.246 147.615 116.812 147.666 118.208 147.526C118.375 147.509 118.545 147.5 118.717 147.5C121.478 147.5 123.717 149.739 123.717 152.5C123.717 155.261 121.478 157.5 118.717 157.5C118.414 157.5 118.118 157.473 117.83 157.422C116.667 157.214 115.359 157.272 114.524 158.107C113.723 158.908 113.654 160.162 113.711 161.294C113.715 161.362 113.717 161.431 113.717 161.5C113.717 163.709 111.926 165.5 109.717 165.5C107.507 165.5 105.717 163.709 105.717 161.5C105.717 159.291 107.507 157.5 109.717 157.5C109.786 157.5 109.854 157.502 109.923 157.505C111.054 157.563 112.309 157.494 113.11 156.692C113.945 155.857 114.003 154.549 113.795 153.387C113.743 153.099 113.717 152.803 113.717 152.5C113.717 152.328 113.725 152.159 113.742 151.992C113.883 150.596 113.832 149.03 112.84 148.037C111.81 147.008 110.187 146.965 108.774 147.312C108.275 147.435 107.753 147.5 107.217 147.5C103.627 147.5 100.717 144.59 100.717 141C100.717 137.41 103.627 134.5 107.217 134.5C110.806 134.5 113.717 137.41 113.717 141Z" fill="black"/>
<path d="M130.717 141.949H136.784C137.845 141.949 138.814 142.118 139.69 142.457C140.567 142.795 141.313 143.303 141.928 143.979C142.543 144.64 143.02 145.479 143.358 146.494C143.696 147.493 143.865 148.662 143.865 150C143.865 151.338 143.696 152.514 143.358 153.529C143.02 154.529 142.543 155.367 141.928 156.044C141.313 156.705 140.567 157.205 139.69 157.543C138.814 157.882 137.845 158.051 136.784 158.051H130.717V141.949ZM136.784 154.937C137.829 154.937 138.652 154.644 139.252 154.06C139.852 153.476 140.151 152.538 140.151 151.246V148.754C140.151 147.462 139.852 146.524 139.252 145.94C138.652 145.356 137.829 145.063 136.784 145.063H134.223V154.937H136.784Z" fill="black"/>
<path d="M151.092 158.328C149.677 158.328 148.478 158.089 147.493 157.613C146.509 157.12 145.671 156.49 144.979 155.721L147.286 153.391C148.378 154.621 149.723 155.237 151.323 155.237C152.184 155.237 152.822 155.06 153.237 154.706C153.653 154.352 153.86 153.883 153.86 153.299C153.86 152.853 153.737 152.484 153.491 152.191C153.245 151.884 152.745 151.676 151.992 151.569L150.4 151.361C148.693 151.146 147.44 150.631 146.64 149.815C145.855 149 145.463 147.916 145.463 146.563C145.463 145.84 145.602 145.179 145.879 144.579C146.155 143.979 146.548 143.464 147.055 143.033C147.578 142.603 148.208 142.272 148.947 142.041C149.7 141.795 150.554 141.672 151.507 141.672C152.722 141.672 153.791 141.865 154.714 142.249C155.636 142.634 156.428 143.195 157.09 143.933L154.76 146.286C154.375 145.84 153.906 145.479 153.353 145.202C152.814 144.91 152.13 144.763 151.3 144.763C150.515 144.763 149.931 144.902 149.546 145.179C149.162 145.456 148.97 145.84 148.97 146.332C148.97 146.886 149.116 147.286 149.408 147.532C149.716 147.778 150.208 147.955 150.884 148.062L152.476 148.316C154.137 148.577 155.367 149.093 156.167 149.862C156.967 150.615 157.367 151.692 157.367 153.091C157.367 153.86 157.228 154.568 156.951 155.213C156.675 155.859 156.267 156.413 155.729 156.874C155.206 157.336 154.552 157.697 153.768 157.959C152.984 158.205 152.092 158.328 151.092 158.328Z" fill="black"/>
<path d="M164.265 150.438L162.719 147.209H162.65V158.051H159.351V141.949H163.18L167.586 149.562L169.132 152.791H169.201V141.949H172.5V158.051H168.671L164.265 150.438Z" fill="black"/>
<path d="M175.121 158.051V141.949H186.079V145.063H178.628V148.362H185.018V151.453H178.628V154.937H186.079V158.051H175.121Z" fill="black"/>
<path d="M194.924 145.063V158.051H191.417V145.063H187.057V141.949H199.283V145.063H194.924Z" fill="black"/>
<path opacity="0.1" d="M186.005 -26.9503C187.869 -17.6648 188.475 -8.40022 187.936 0.686542C186.408 26.4206 192.849 54.3293 215.475 68.3027C237.291 81.7761 266.461 76.84 291.82 69.2131C294.855 68.3002 297.964 67.5206 301.14 66.8829C352.263 56.6195 401.48 87.0153 411.067 134.774C420.655 182.532 386.984 229.568 335.861 239.832C330.258 240.956 324.678 241.593 319.171 241.772C296.93 242.494 272.911 248.361 260.352 265.905C248.3 282.741 251.379 304.692 256.371 324.052C256.672 325.219 256.943 326.4 257.183 327.595C264.853 365.801 237.916 403.43 197.017 411.641C156.119 419.852 116.746 395.535 109.076 357.328C101.405 319.122 128.342 281.493 169.241 273.282C170.52 273.025 171.797 272.8 173.072 272.607C194.223 269.393 217.207 263.539 229.26 246.702C241.819 229.158 238.352 206.316 230.464 186.987C228.511 182.2 226.985 177.175 225.934 171.941C225.338 168.974 224.909 166.009 224.641 163.056C222.403 138.385 216.019 111.491 194.203 98.0175C171.578 84.0441 141.379 89.3236 116.421 100.587C107.609 104.565 98.1763 107.629 88.2366 109.625C21.7764 122.967 -42.2045 83.4528 -54.6688 21.3668C-67.133 -40.7193 -23.3607 -101.866 43.0995 -115.208C109.56 -128.551 173.541 -89.0364 186.005 -26.9503Z" fill="black"/>
</g>
<defs>
<clipPath id="clip0_24_411">
<rect width="300" height="300" fill="white"/>
</clipPath>
</defs>
</svg>
