<svg width="128" height="64" viewBox="0 0 128 64" fill="none" xmlns="http://www.w3.org/2000/svg">
<path d="M27.7166 23C27.7166 23.5369 27.6515 24.0586 27.5287 24.5576C27.1812 25.9709 27.2247 27.5939 28.2538 28.623C29.2461 29.6153 30.8121 29.6665 32.2083 29.5255C32.3754 29.5086 32.545 29.5 32.7166 29.5C35.478 29.5 37.7166 31.7386 37.7166 34.5C37.7166 37.2614 35.478 39.5 32.7166 39.5C32.4139 39.5 32.1176 39.4731 31.8297 39.4216C30.6674 39.2135 29.3591 39.2716 28.5242 40.1066C27.7229 40.9079 27.6539 42.1623 27.7113 43.294C27.7148 43.3623 27.7166 43.4309 27.7166 43.5C27.7166 45.7091 25.9257 47.5 23.7166 47.5C21.5074 47.5 19.7166 45.7091 19.7166 43.5C19.7166 41.2909 21.5074 39.5 23.7166 39.5C23.7856 39.5 23.8543 39.5018 23.9225 39.5052C25.0543 39.5626 26.3087 39.4937 27.1099 38.6924C27.9449 37.8574 28.003 36.5492 27.795 35.3868C27.7434 35.099 27.7166 34.8026 27.7166 34.5C27.7166 34.3284 27.7252 34.1589 27.7421 33.9918C27.883 32.5956 27.8319 31.0295 26.8396 30.0373C25.8105 29.0081 24.1874 28.9646 22.7742 29.3122C22.2751 29.4349 21.7534 29.5 21.2166 29.5C17.6267 29.5 14.7166 26.5899 14.7166 23C14.7166 19.4101 17.6267 16.5 21.2166 16.5C24.8064 16.5 27.7166 19.4101 27.7166 23Z" fill="black"/>
<path d="M44.7166 23.9492H50.7835C51.8447 23.9492 52.8135 24.1184 53.6901 24.4567C54.5667 24.795 55.3126 25.3025 55.9277 25.9792C56.5429 26.6405 57.0196 27.4786 57.358 28.4936C57.6963 29.4933 57.8655 30.6621 57.8655 32C57.8655 33.338 57.6963 34.5145 57.358 35.5295C57.0196 36.5291 56.5429 37.3672 55.9277 38.0439C55.3126 38.7052 54.5667 39.205 53.6901 39.5434C52.8135 39.8817 51.8447 40.0509 50.7835 40.0509H44.7166V23.9492ZM50.7835 36.9366C51.8293 36.9366 52.652 36.6444 53.2518 36.06C53.8516 35.4756 54.1515 34.5375 54.1515 33.2457V30.7543C54.1515 29.4625 53.8516 28.5244 53.2518 27.94C52.652 27.3556 51.8293 27.0634 50.7835 27.0634H48.2229V36.9366H50.7835Z" fill="#0F172A"/>
<path d="M65.092 40.3277C63.6771 40.3277 62.4776 40.0893 61.4933 39.6126C60.5091 39.1204 59.6709 38.4899 58.9789 37.721L61.2857 35.3911C62.3776 36.6214 63.7233 37.2365 65.3227 37.2365C66.1839 37.2365 66.8221 37.0597 67.2373 36.7059C67.6526 36.3522 67.8602 35.8832 67.8602 35.2988C67.8602 34.8528 67.7372 34.4837 67.4911 34.1915C67.245 33.8839 66.7452 33.6763 65.9916 33.5687L64.3999 33.361C62.6929 33.1457 61.4395 32.6306 60.6398 31.8155C59.8555 31.0004 59.4633 29.9162 59.4633 28.5628C59.4633 27.84 59.6017 27.1787 59.8786 26.579C60.1554 25.9792 60.5475 25.464 61.055 25.0334C61.5779 24.6028 62.2084 24.2721 62.9466 24.0415C63.7002 23.7954 64.5537 23.6724 65.5072 23.6724C66.7221 23.6724 67.791 23.8646 68.7137 24.2491C69.6364 24.6335 70.4285 25.1949 71.0897 25.9331L68.7598 28.286C68.3754 27.84 67.9063 27.4786 67.3527 27.2018C66.8144 26.9096 66.1301 26.7635 65.2996 26.7635C64.5153 26.7635 63.9309 26.9019 63.5464 27.1787C63.1619 27.4556 62.9697 27.84 62.9697 28.3322C62.9697 28.8858 63.1158 29.2856 63.408 29.5317C63.7156 29.7778 64.2077 29.9546 64.8844 30.0623L66.4761 30.316C68.137 30.5775 69.3673 31.0927 70.167 31.8616C70.9667 32.6152 71.3666 33.6917 71.3666 35.0912C71.3666 35.8601 71.2282 36.5675 70.9513 37.2135C70.6745 37.8594 70.267 38.413 69.7287 38.8744C69.2058 39.3357 68.5522 39.6971 67.7679 39.9586C66.9836 40.2046 66.0916 40.3277 65.092 40.3277Z" fill="#0F172A"/>
<path d="M78.2645 32.4383L76.7189 29.2088H76.6497V40.0509H73.351V23.9492H77.1803L81.5864 31.5617L83.1319 34.7913H83.2011V23.9492H86.4999V40.0509H82.6706L78.2645 32.4383Z" fill="#0F172A"/>
<path d="M89.1212 40.0509V23.9492H100.079V27.0634H92.6276V30.3622H99.0175V33.4533H92.6276V36.9366H100.079V40.0509H89.1212Z" fill="#0F172A"/>
<path d="M108.924 27.0634V40.0509H105.417V27.0634H101.057V23.9492H113.283V27.0634H108.924Z" fill="#0F172A"/>
</svg>
