<svg width="100" height="32" viewBox="0 0 100 32" fill="none" xmlns="http://www.w3.org/2000/svg">
<path d="M13.7166 7C13.7166 7.5369 13.6515 8.05859 13.5287 8.55762C13.1812 9.97088 13.2247 11.5939 14.2538 12.623C15.2461 13.6153 16.8121 13.6665 18.2083 13.5255C18.3754 13.5086 18.545 13.5 18.7166 13.5C21.478 13.5 23.7166 15.7386 23.7166 18.5C23.7166 21.2614 21.478 23.5 18.7166 23.5C18.4139 23.5 18.1176 23.4731 17.8297 23.4216C16.6674 23.2135 15.3591 23.2716 14.5242 24.1066C13.7229 24.9079 13.6539 26.1623 13.7113 27.294C13.7148 27.3623 13.7166 27.4309 13.7166 27.5C13.7166 29.7091 11.9257 31.5 9.71655 31.5C7.50741 31.5 5.71655 29.7091 5.71655 27.5C5.71655 25.2909 7.50741 23.5 9.71655 23.5C9.78563 23.5 9.85429 23.5018 9.92251 23.5052C11.0543 23.5626 12.3087 23.4937 13.1099 22.6924C13.9449 21.8574 14.003 20.5492 13.795 19.3868C13.7434 19.099 13.7166 18.8026 13.7166 18.5C13.7166 18.3284 13.7252 18.1589 13.7421 17.9918C13.883 16.5956 13.8319 15.0295 12.8396 14.0373C11.8105 13.0081 10.1874 12.9646 8.77417 13.3122C8.27514 13.4349 7.75345 13.5 7.21655 13.5C3.6267 13.5 0.716553 10.5899 0.716553 7C0.716553 3.41015 3.6267 0.5 7.21655 0.5C10.8064 0.5 13.7166 3.41015 13.7166 7Z" fill="black"/>
<path d="M30.7166 7.94918H36.7835C37.8447 7.94918 38.8135 8.11835 39.6901 8.45668C40.5667 8.79502 41.3126 9.30252 41.9277 9.97919C42.5429 10.6405 43.0196 11.4786 43.358 12.4936C43.6963 13.4933 43.8655 14.6621 43.8655 16C43.8655 17.338 43.6963 18.5145 43.358 19.5295C43.0196 20.5291 42.5429 21.3672 41.9277 22.0439C41.3126 22.7052 40.5667 23.205 39.6901 23.5434C38.8135 23.8817 37.8447 24.0509 36.7835 24.0509H30.7166V7.94918ZM36.7835 20.9366C37.8293 20.9366 38.652 20.6444 39.2518 20.06C39.8516 19.4756 40.1515 18.5375 40.1515 17.2457V14.7543C40.1515 13.4625 39.8516 12.5244 39.2518 11.94C38.652 11.3556 37.8293 11.0634 36.7835 11.0634H34.2229V20.9366H36.7835Z" fill="#0F172A"/>
<path d="M51.092 24.3277C49.6771 24.3277 48.4776 24.0893 47.4933 23.6126C46.5091 23.1204 45.6709 22.4899 44.9789 21.721L47.2857 19.3911C48.3776 20.6214 49.7233 21.2365 51.3227 21.2365C52.1839 21.2365 52.8221 21.0597 53.2373 20.7059C53.6526 20.3522 53.8602 19.8832 53.8602 19.2988C53.8602 18.8528 53.7372 18.4837 53.4911 18.1915C53.245 17.8839 52.7452 17.6763 51.9916 17.5687L50.3999 17.361C48.6929 17.1457 47.4395 16.6306 46.6398 15.8155C45.8555 15.0004 45.4633 13.9162 45.4633 12.5628C45.4633 11.84 45.6017 11.1787 45.8786 10.579C46.1554 9.97919 46.5475 9.464 47.055 9.03339C47.5779 8.60278 48.2084 8.27214 48.9466 8.04146C49.7002 7.79539 50.5537 7.67236 51.5072 7.67236C52.7221 7.67236 53.791 7.8646 54.7137 8.24907C55.6364 8.63354 56.4285 9.19487 57.0897 9.93306L54.7598 12.286C54.3754 11.84 53.9063 11.4786 53.3527 11.2018C52.8144 10.9096 52.1301 10.7635 51.2996 10.7635C50.5153 10.7635 49.9309 10.9019 49.5464 11.1787C49.1619 11.4556 48.9697 11.84 48.9697 12.3322C48.9697 12.8858 49.1158 13.2856 49.408 13.5317C49.7156 13.7778 50.2077 13.9546 50.8844 14.0623L52.4761 14.316C54.137 14.5775 55.3673 15.0927 56.167 15.8616C56.9667 16.6152 57.3666 17.6917 57.3666 19.0912C57.3666 19.8601 57.2282 20.5675 56.9513 21.2135C56.6745 21.8594 56.267 22.413 55.7287 22.8744C55.2058 23.3357 54.5522 23.6971 53.7679 23.9586C52.9836 24.2046 52.0916 24.3277 51.092 24.3277Z" fill="#0F172A"/>
<path d="M64.2645 16.4383L62.7189 13.2088H62.6497V24.0509H59.351V7.94918H63.1803L67.5864 15.5617L69.1319 18.7913H69.2011V7.94918H72.4999V24.0509H68.6706L64.2645 16.4383Z" fill="#0F172A"/>
<path d="M75.1212 24.0509V7.94918H86.0787V11.0634H78.6276V14.3622H85.0175V17.4533H78.6276V20.9366H86.0787V24.0509H75.1212Z" fill="#0F172A"/>
<path d="M94.9235 11.0634V24.0509H91.4172V11.0634H87.0573V7.94918H99.2835V11.0634H94.9235Z" fill="#0F172A"/>
</svg>
